<svg width="475" height="87" viewBox="0 0 475 87" fill="none" xmlns="http://www.w3.org/2000/svg">
<line x1="12.5" y1="29.2368" x2="12.5" y2="77" stroke="white" stroke-width="5"/>
<line x1="38.3334" y1="31.7368" x2="10" y2="31.7368" stroke="white" stroke-width="5"/>
<line x1="47.5" y1="41.3948" x2="47.5" y2="11.8685" stroke="white" stroke-width="5"/>
<line x1="50" y1="13.5" y2="13.5" stroke="white" stroke-width="5"/>
<line x1="50" y1="43.8948" x2="21.6667" y2="43.8948" stroke="white" stroke-width="5"/>
<path d="M101.031 70.4062V17.6719L107.711 14.5078H108.062V56.5195C112.586 55.1367 116.945 52.7812 121.141 49.4531C125.852 45.7266 128.207 41.0977 128.207 35.5664C128.207 31.2539 126.402 27.5508 122.793 24.457C119.512 21.6445 114.73 19.6055 108.449 18.3398L116.5 14.5078H116.852C121.469 15.4219 125.43 17.5195 128.734 20.8008C132.742 24.7617 134.746 29.6719 134.746 35.5312C134.746 42.1641 130.973 48 123.426 53.0391C118.785 56.1328 113.664 58.4648 108.062 60.0352V67.2422L101.383 70.4062H101.031ZM146.031 70.4062V32.0859L152.711 28.9219H153.062V67.2422L146.383 70.4062H146.031ZM153.062 14.5078V22.5234L146.383 25.6875H146.031V17.6719L152.711 14.5078H153.062ZM166.598 70.4062L162.906 68.6484L174.227 50.8945L162.906 31.8398L169.059 28.9219H169.41L178.48 44.2148L188.219 28.9219H188.57L192.262 30.6797L180.941 48.4336L192.262 67.5234L186.145 70.4062H185.793L176.723 55.0781L166.949 70.4062H166.598ZM213.215 70.4062C208.785 70.1016 205.375 68.9766 202.984 67.0312C200.078 64.6406 198.625 61.1602 198.625 56.5898V40.207L213.215 28.9219C217.645 29.2266 221.055 30.3516 223.445 32.2969C226.352 34.6641 227.805 38.1445 227.805 42.7383L206.184 60.2109C206.605 61.3828 207.191 62.2852 207.941 62.918C209.465 64.207 211.199 64.8516 213.145 64.8516C215.184 64.8516 217.035 64.1367 218.699 62.707C220.082 61.5117 220.773 59.4727 220.773 56.5898L227.453 53.4258H227.805V59.1211L213.215 70.4062ZM205.656 55.043L220.773 42.7734C220.773 39.8203 220 37.6992 218.453 36.4102C216.93 35.1211 215.184 34.4766 213.215 34.4766C210.941 34.4766 209.113 35.1914 207.73 36.6211C206.348 38.0508 205.656 40.0898 205.656 42.7383V55.043ZM245.066 70.4062L231.496 31.8047L237.578 28.9219H237.93L249.215 61.3008L260.465 28.9219H260.816L264.438 30.6445L251.5 67.5234L245.418 70.4062H245.066ZM271.68 70.4062V32.0859L278.359 28.9219H278.711V67.2422L272.031 70.4062H271.68ZM278.711 14.5078V22.5234L272.031 25.6875H271.68V17.6719L278.359 14.5078H278.711ZM295.41 70.4062V34.8984H285.918V34.5469L287.922 30.3281H295.41V17.6719L302.09 14.5078H302.441V30.3281H311.934V30.6797L309.93 34.8984H302.441V67.2422L295.762 70.4062H295.41ZM319.141 70.4062V62.3906L325.82 59.2266H326.172V67.2422L319.492 70.4062H319.141ZM353.066 70.4062C348.637 70.1016 345.227 68.9766 342.836 67.0312C339.93 64.6406 338.477 61.1602 338.477 56.5898V40.207L353.066 28.9219C357.496 29.2266 360.906 30.3516 363.297 32.2969C366.203 34.6641 367.656 38.1445 367.656 42.7383L360.977 45.9023H360.625V42.7383C360.625 39.9023 359.863 37.793 358.34 36.4102C356.887 35.1211 355.129 34.4766 353.066 34.4766C350.77 34.5 348.941 35.2148 347.582 36.6211C346.199 38.0508 345.508 40.0898 345.508 42.7383V56.5898C345.508 59.4258 346.27 61.5352 347.793 62.918C349.246 64.207 351.004 64.8516 353.066 64.8516C355.363 64.8281 357.191 64.1133 358.551 62.707C359.934 61.2773 360.625 59.2383 360.625 56.5898L367.305 53.4258H367.656V59.1211L353.066 70.4062ZM392.793 70.4062C388.363 70.1016 384.953 68.9766 382.562 67.0312C379.656 64.6406 378.203 61.1602 378.203 56.5898V40.207L392.793 28.9219C397.223 29.2266 400.633 30.3516 403.023 32.2969C405.93 34.6641 407.383 38.1445 407.383 42.7383V59.1211L392.793 70.4062ZM392.793 64.8516C395.02 64.8516 396.836 64.1367 398.242 62.707C399.648 61.2773 400.352 59.2383 400.352 56.5898V42.7383C400.352 39.8086 399.578 37.6992 398.031 36.4102C396.508 35.1211 394.762 34.4766 392.793 34.4766C390.566 34.4766 388.75 35.1914 387.344 36.6211C385.938 38.0508 385.234 40.0898 385.234 42.7383V56.5898C385.234 59.5195 385.996 61.6289 387.52 62.918C389.043 64.207 390.801 64.8516 392.793 64.8516ZM417.93 70.4062V40.207L432.52 28.9219C436.996 29.2266 440.406 30.3516 442.75 32.2969C443.969 33.3047 444.941 34.5 445.668 35.8828L454.668 28.9219C459.098 29.2266 462.508 30.3516 464.898 32.2969C467.805 34.6641 469.258 38.1445 469.258 42.7383V67.2422L462.578 70.4062H462.227V42.7383C462.227 39.8086 461.465 37.6992 459.941 36.4102C458.418 35.1211 456.66 34.4766 454.668 34.4766C452.465 34.4766 450.637 35.1914 449.184 36.6211C447.801 37.9805 447.109 40.0195 447.109 42.7383V67.2422L440.43 70.4062H440.078V42.7383C440.078 39.8086 439.316 37.6992 437.793 36.4102C436.27 35.1211 434.512 34.4766 432.52 34.4766C430.316 34.4766 428.488 35.1914 427.035 36.6211C425.652 37.9805 424.961 40.0195 424.961 42.7383V67.2422L418.281 70.4062H417.93Z" fill="white"/>
</svg>
