<svg width="478" height="87" viewBox="0 0 478 87" fill="none" xmlns="http://www.w3.org/2000/svg">
<line x1="12.5" y1="29.2368" x2="12.5" y2="77" stroke="white" stroke-width="5"/>
<line x1="38.3334" y1="31.7368" x2="10" y2="31.7368" stroke="white" stroke-width="5"/>
<line x1="47.5" y1="41.3948" x2="47.5" y2="11.8685" stroke="white" stroke-width="5"/>
<line x1="50" y1="13.5" y2="13.5" stroke="white" stroke-width="5"/>
<line x1="50" y1="43.8948" x2="21.6667" y2="43.8948" stroke="white" stroke-width="5"/>
<path d="M101.031 70.4062V17.6719L107.711 14.5078H108.062V56.5195C112.586 55.1367 116.945 52.7812 121.141 49.4531C125.852 45.7266 128.207 41.0977 128.207 35.5664C128.207 31.2539 126.402 27.5508 122.793 24.457C119.512 21.6445 114.73 19.6055 108.449 18.3398L116.5 14.5078H116.852C121.469 15.4219 125.43 17.5195 128.734 20.8008C132.742 24.7617 134.746 29.6719 134.746 35.5312C134.746 42.1641 130.973 48 123.426 53.0391C118.785 56.1328 113.664 58.4648 108.062 60.0352V67.2422L101.383 70.4062H101.031ZM146.031 70.4062V32.0859L152.711 28.9219H153.062V67.2422L146.383 70.4062H146.031ZM153.062 14.5078V22.5234L146.383 25.6875H146.031V17.6719L152.711 14.5078H153.062ZM166.598 70.4062L162.906 68.6484L174.227 50.8945L162.906 31.8398L169.059 28.9219H169.41L178.48 44.2148L188.219 28.9219H188.57L192.262 30.6797L180.941 48.4336L192.262 67.5234L186.145 70.4062H185.793L176.723 55.0781L166.949 70.4062H166.598ZM213.215 70.4062C208.785 70.1016 205.375 68.9766 202.984 67.0312C200.078 64.6406 198.625 61.1602 198.625 56.5898V40.207L213.215 28.9219C217.645 29.2266 221.055 30.3516 223.445 32.2969C226.352 34.6641 227.805 38.1445 227.805 42.7383L206.184 60.2109C206.605 61.3828 207.191 62.2852 207.941 62.918C209.465 64.207 211.199 64.8516 213.145 64.8516C215.184 64.8516 217.035 64.1367 218.699 62.707C220.082 61.5117 220.773 59.4727 220.773 56.5898L227.453 53.4258H227.805V59.1211L213.215 70.4062ZM205.656 55.043L220.773 42.7734C220.773 39.8203 220 37.6992 218.453 36.4102C216.93 35.1211 215.184 34.4766 213.215 34.4766C210.941 34.4766 209.113 35.1914 207.73 36.6211C206.348 38.0508 205.656 40.0898 205.656 42.7383V55.043ZM242.746 70.4062V34.8984H233.254V34.5469L235.258 30.3281H242.746V17.6719L249.426 14.5078H249.777V30.3281H259.27V30.6797L257.266 34.8984H249.777V67.2422L243.098 70.4062H242.746ZM266.477 70.4062V32.0859L273.156 28.9219H273.508V67.2422L266.828 70.4062H266.477ZM273.508 14.5078V22.5234L266.828 25.6875H266.477V17.6719L273.156 14.5078H273.508ZM287.043 70.4062L283.352 68.6484L294.672 50.8945L283.352 31.8398L289.504 28.9219H289.855L298.926 44.2148L308.664 28.9219H309.016L312.707 30.6797L301.387 48.4336L312.707 67.5234L306.59 70.4062H306.238L297.168 55.0781L287.395 70.4062H287.043ZM322.586 70.4062V62.3906L329.266 59.2266H329.617V67.2422L322.938 70.4062H322.586ZM356.512 70.4062C352.082 70.1016 348.672 68.9766 346.281 67.0312C343.375 64.6406 341.922 61.1602 341.922 56.5898V40.207L356.512 28.9219C360.941 29.2266 364.352 30.3516 366.742 32.2969C369.648 34.6641 371.102 38.1445 371.102 42.7383L364.422 45.9023H364.07V42.7383C364.07 39.9023 363.309 37.793 361.785 36.4102C360.332 35.1211 358.574 34.4766 356.512 34.4766C354.215 34.5 352.387 35.2148 351.027 36.6211C349.645 38.0508 348.953 40.0898 348.953 42.7383V56.5898C348.953 59.4258 349.715 61.5352 351.238 62.918C352.691 64.207 354.449 64.8516 356.512 64.8516C358.809 64.8281 360.637 64.1133 361.996 62.707C363.379 61.2773 364.07 59.2383 364.07 56.5898L370.75 53.4258H371.102V59.1211L356.512 70.4062ZM396.238 70.4062C391.809 70.1016 388.398 68.9766 386.008 67.0312C383.102 64.6406 381.648 61.1602 381.648 56.5898V40.207L396.238 28.9219C400.668 29.2266 404.078 30.3516 406.469 32.2969C409.375 34.6641 410.828 38.1445 410.828 42.7383V59.1211L396.238 70.4062ZM396.238 64.8516C398.465 64.8516 400.281 64.1367 401.688 62.707C403.094 61.2773 403.797 59.2383 403.797 56.5898V42.7383C403.797 39.8086 403.023 37.6992 401.477 36.4102C399.953 35.1211 398.207 34.4766 396.238 34.4766C394.012 34.4766 392.195 35.1914 390.789 36.6211C389.383 38.0508 388.68 40.0898 388.68 42.7383V56.5898C388.68 59.5195 389.441 61.6289 390.965 62.918C392.488 64.207 394.246 64.8516 396.238 64.8516ZM421.375 70.4062V40.207L435.965 28.9219C440.441 29.2266 443.852 30.3516 446.195 32.2969C447.414 33.3047 448.387 34.5 449.113 35.8828L458.113 28.9219C462.543 29.2266 465.953 30.3516 468.344 32.2969C471.25 34.6641 472.703 38.1445 472.703 42.7383V67.2422L466.023 70.4062H465.672V42.7383C465.672 39.8086 464.91 37.6992 463.387 36.4102C461.863 35.1211 460.105 34.4766 458.113 34.4766C455.91 34.4766 454.082 35.1914 452.629 36.6211C451.246 37.9805 450.555 40.0195 450.555 42.7383V67.2422L443.875 70.4062H443.523V42.7383C443.523 39.8086 442.762 37.6992 441.238 36.4102C439.715 35.1211 437.957 34.4766 435.965 34.4766C433.762 34.4766 431.934 35.1914 430.48 36.6211C429.098 37.9805 428.406 40.0195 428.406 42.7383V67.2422L421.727 70.4062H421.375Z" fill="white"/>
</svg>
