<svg width="525" height="87" viewBox="0 0 525 87" fill="none" xmlns="http://www.w3.org/2000/svg">
<line x1="12.5" y1="29.2368" x2="12.5" y2="77" stroke="white" stroke-width="5"/>
<line x1="38.3334" y1="31.7368" x2="10" y2="31.7368" stroke="white" stroke-width="5"/>
<line x1="47.5" y1="41.3948" x2="47.5" y2="11.8685" stroke="white" stroke-width="5"/>
<line x1="50" y1="13.5" y2="13.5" stroke="white" stroke-width="5"/>
<line x1="50" y1="43.8948" x2="21.6667" y2="43.8948" stroke="white" stroke-width="5"/>
<path d="M101.031 70.4062V17.6719L107.711 14.5078H108.062V56.5195C112.586 55.1367 116.945 52.7812 121.141 49.4531C125.852 45.7266 128.207 41.0977 128.207 35.5664C128.207 31.2539 126.402 27.5508 122.793 24.457C119.512 21.6445 114.73 19.6055 108.449 18.3398L116.5 14.5078H116.852C121.469 15.4219 125.43 17.5195 128.734 20.8008C132.742 24.7617 134.746 29.6719 134.746 35.5312C134.746 42.1641 130.973 48 123.426 53.0391C118.785 56.1328 113.664 58.4648 108.062 60.0352V67.2422L101.383 70.4062H101.031ZM141.461 70.4062V40.207L156.051 28.9219C160.48 29.2266 163.891 30.3516 166.281 32.2969C169.188 34.6641 170.641 38.1445 170.641 42.7383L163.961 45.9023H163.609V42.7383C163.609 39.8086 162.836 37.6992 161.289 36.4102C159.766 35.1211 158.008 34.4766 156.016 34.4766C153.977 34.4766 152.16 35.1914 150.566 36.6211C149.184 37.8633 148.492 39.9023 148.492 42.7383V67.2422L141.812 70.4062H141.461ZM192.262 70.4062C187.832 70.1016 184.422 68.9766 182.031 67.0312C179.125 64.6406 177.672 61.1602 177.672 56.5898V40.207L192.262 28.9219C196.691 29.2266 200.102 30.3516 202.492 32.2969C205.398 34.6641 206.852 38.1445 206.852 42.7383V59.1211L192.262 70.4062ZM192.262 64.8516C194.488 64.8516 196.305 64.1367 197.711 62.707C199.117 61.2773 199.82 59.2383 199.82 56.5898V42.7383C199.82 39.8086 199.047 37.6992 197.5 36.4102C195.977 35.1211 194.23 34.4766 192.262 34.4766C190.035 34.4766 188.219 35.1914 186.812 36.6211C185.406 38.0508 184.703 40.0898 184.703 42.7383V56.5898C184.703 59.5195 185.465 61.6289 186.988 62.918C188.512 64.207 190.27 64.8516 192.262 64.8516ZM219.156 70.4062V17.6719L225.836 14.5078H226.188V56.5195C229.445 55.418 232.527 53.9414 235.434 52.0898L230.055 44.3906L236.242 41.4375H236.594L241.023 47.8008C244.258 43.7227 245.875 36.0469 245.875 24.7734V17.6719L252.555 14.5078H252.906V24.6328C252.906 36.2578 249.719 45.082 243.344 51.1055L254.805 67.4883L248.617 70.4062H248.266L237.754 55.3945C234.168 57.4102 230.312 58.957 226.188 60.0352V67.2422L219.508 70.4062H219.156ZM260.078 70.4062V40.207L274.668 28.9219C279.098 29.2266 282.508 30.3516 284.898 32.2969C287.805 34.6641 289.258 38.1445 289.258 42.7383L282.578 45.9023H282.227V42.7383C282.227 39.8086 281.453 37.6992 279.906 36.4102C278.383 35.1211 276.625 34.4766 274.633 34.4766C272.594 34.4766 270.777 35.1914 269.184 36.6211C267.801 37.8633 267.109 39.9023 267.109 42.7383V67.2422L260.43 70.4062H260.078ZM310.879 70.4062C306.449 70.1016 303.039 68.9766 300.648 67.0312C297.742 64.6406 296.289 61.1602 296.289 56.5898V40.207L310.879 28.9219C315.309 29.2266 318.719 30.3516 321.109 32.2969C324.016 34.6641 325.469 38.1445 325.469 42.7383L303.848 60.2109C304.27 61.3828 304.855 62.2852 305.605 62.918C307.129 64.207 308.863 64.8516 310.809 64.8516C312.848 64.8516 314.699 64.1367 316.363 62.707C317.746 61.5117 318.438 59.4727 318.438 56.5898L325.117 53.4258H325.469V59.1211L310.879 70.4062ZM303.32 55.043L318.438 42.7734C318.438 39.8203 317.664 37.6992 316.117 36.4102C314.594 35.1211 312.848 34.4766 310.879 34.4766C308.605 34.4766 306.777 35.1914 305.395 36.6211C304.012 38.0508 303.32 40.0898 303.32 42.7383V55.043ZM348.848 64.8516C351.309 64.8516 353.137 64.1367 354.332 62.707C355.715 61.043 356.406 58.9688 356.406 56.4844C356.406 53.625 355.645 51.5156 354.121 50.1562C352.668 48.8672 350.91 48.2227 348.848 48.2227C346.387 48.2227 344.559 48.9375 343.363 50.3672C341.98 52.0312 341.289 54.0703 341.289 56.4844C341.289 59.4141 342.051 61.5586 343.574 62.918C345.051 64.207 346.809 64.8516 348.848 64.8516ZM348.848 70.4062C344.488 70.1016 341.078 68.9766 338.617 67.0312C335.711 64.7344 334.258 61.2539 334.258 56.5898V53.9531L348.848 42.668C351.801 42.8789 354.32 43.4648 356.406 44.4258V42.7383C356.406 39.9023 355.645 37.793 354.121 36.4102C352.668 35.1211 350.91 34.4766 348.848 34.4766C346.551 34.4766 344.723 35.1914 343.363 36.6211L341.43 34.6523L348.848 28.9219C353.277 29.2266 356.688 30.3516 359.078 32.2969C361.984 34.6641 363.438 38.1445 363.438 42.7383V67.2422L356.758 70.4062H356.406V64.5352L348.848 70.4062ZM378.379 70.4062V34.8984H368.887V34.5469L370.891 30.3281H378.379V17.6719L385.059 14.5078H385.41V30.3281H394.902V30.6797L392.898 34.8984H385.41V67.2422L378.73 70.4062H378.379ZM402.109 70.4062V32.0859L408.789 28.9219H409.141V67.2422L402.461 70.4062H402.109ZM409.141 14.5078V22.5234L402.461 25.6875H402.109V17.6719L408.789 14.5078H409.141ZM429.918 70.4062L416.348 31.8047L422.43 28.9219H422.781L434.066 61.3008L445.316 28.9219H445.668L449.289 30.6445L436.352 67.5234L430.27 70.4062H429.918ZM466.551 70.4062C462.121 70.1016 458.711 68.9766 456.32 67.0312C453.414 64.6406 451.961 61.1602 451.961 56.5898V40.207L466.551 28.9219C470.98 29.2266 474.391 30.3516 476.781 32.2969C479.688 34.6641 481.141 38.1445 481.141 42.7383L459.52 60.2109C459.941 61.3828 460.527 62.2852 461.277 62.918C462.801 64.207 464.535 64.8516 466.48 64.8516C468.52 64.8516 470.371 64.1367 472.035 62.707C473.418 61.5117 474.109 59.4727 474.109 56.5898L480.789 53.4258H481.141V59.1211L466.551 70.4062ZM458.992 55.043L474.109 42.7734C474.109 39.8203 473.336 37.6992 471.789 36.4102C470.266 35.1211 468.52 34.4766 466.551 34.4766C464.277 34.4766 462.449 35.1914 461.066 36.6211C459.684 38.0508 458.992 40.0898 458.992 42.7383V55.043ZM505.223 70.4062C500.793 70.1016 497.383 68.9766 494.992 67.0312C492.086 64.6641 490.633 61.1836 490.633 56.5898L497.312 53.4258H497.664V56.5898C497.664 59.4258 498.426 61.5352 499.949 62.918C501.402 64.207 503.16 64.8516 505.223 64.8516C507.473 64.8516 509.289 64.1367 510.672 62.707C512.078 61.2773 512.781 59.25 512.781 56.625C512.781 53.9766 511.996 52.1602 510.426 51.1758C509.066 50.332 507.32 49.9102 505.188 49.9102C499.703 49.9102 495.883 48.6445 493.727 46.1133C492.648 44.8242 492.109 42.4805 492.109 39.082L505.223 28.9219C508.645 28.9922 511.516 30.0234 513.836 32.0156C515.711 33.6328 516.871 35.7422 517.316 38.3438L510.637 41.5078H510.285V40.4883C510.285 38.8008 509.934 37.5234 509.23 36.6562C508.059 35.2031 506.453 34.4766 504.414 34.4766C502.398 34.4766 500.887 35.1094 499.879 36.375C499.152 37.2891 498.789 38.4141 498.789 39.75C498.789 41.25 499.422 42.4453 500.688 43.3359C501.391 43.8281 502.891 44.0742 505.188 44.0742C510.227 44.0742 513.848 45.0469 516.051 46.9922C518.559 49.1953 519.812 53.2383 519.812 59.1211L505.223 70.4062Z" fill="white"/>
</svg>
